<?xml version="1.0" standalone="no"?>
<!DOCTYPE svg PUBLIC "-//W3C//DTD SVG 20010904//EN"
 "http://www.w3.org/TR/2001/REC-SVG-20010904/DTD/svg10.dtd">
<svg version="1.0" xmlns="http://www.w3.org/2000/svg"
 width="260.000000pt" height="260.000000pt" viewBox="0 0 260.000000 260.000000"
 preserveAspectRatio="xMidYMid meet">
<metadata>
Created by potrace 1.14, written by Peter Selinger 2001-2017
</metadata>
<g transform="translate(0.000000,260.000000) scale(0.100000,-0.100000)"
fill="#000000" stroke="none">
<path d="M1477 2436 c-21 -21 -75 -116 -145 -259 -62 -124 -112 -228 -112
-230 0 -3 -19 -47 -43 -99 -24 -51 -59 -128 -78 -172 -21 -48 -41 -82 -54 -87
-11 -4 -81 -31 -155 -61 -182 -71 -454 -208 -512 -258 -31 -27 -51 -55 -61
-85 -15 -42 -15 -47 7 -86 12 -24 34 -52 49 -63 39 -29 141 -43 300 -42 75 1
137 0 137 0 0 -4 -34 -83 -61 -142 -17 -37 -41 -89 -54 -117 -12 -27 -42 -90
-65 -140 -53 -111 -57 -153 -15 -195 37 -36 78 -44 122 -23 30 14 43 34 94
141 50 106 138 302 206 465 9 20 21 36 27 35 10 -2 39 2 156 18 74 11 257 44
289 54 19 5 36 9 37 7 1 -1 5 -69 8 -151 4 -82 9 -170 11 -195 2 -25 7 -91 10
-146 14 -236 27 -333 56 -410 20 -54 59 -96 95 -101 26 -4 61 16 75 43 19 35
16 207 -6 403 -2 19 -7 80 -10 135 -3 55 -8 129 -10 165 -15 224 -16 330 -5
330 10 0 66 23 130 53 69 33 202 122 253 171 85 82 111 156 82 233 -38 98
-146 135 -400 137 l-99 1 -2 35 c-1 19 -5 95 -8 168 -20 414 -50 502 -175 502
-32 0 -47 -7 -74 -34z m38 -546 c4 -80 8 -149 8 -154 2 -9 -172 -61 -179 -53
-3 2 11 40 31 83 65 143 128 274 131 272 1 -2 5 -68 9 -148z m394 -375 c5 -11
-138 -97 -153 -92 -5 2 -10 22 -11 45 -2 39 0 43 26 50 42 10 133 9 138 -3z
m-375 -107 l6 -66 -88 -21 c-113 -26 -282 -55 -288 -48 -3 2 8 31 23 63 25 52
33 60 73 72 53 17 264 71 267 68 1 -1 4 -31 7 -68z m-609 -147 c-3 -12 -14
-22 -23 -22 -9 -1 -32 -2 -49 -4 -18 -1 -33 -1 -33 1 0 6 104 53 108 49 2 -2
1 -13 -3 -24z"/>
</g>
</svg>
